<?xml version="1.0" encoding="UTF-8"?>
<svg xmlns="http://www.w3.org/2000/svg" width="121" height="107" viewBox="0 0 121 107" fill="none">
  <g clip-path="url(#clip0_10_6)">
    <path d="M1.67395 97.009C1.54559 97.0031 1.4178 97.0294 1.30219 97.0855C1.18658 97.1415 1.08681 97.2256 1.01195 97.33C0.841222 97.5961 0.759292 97.9095 0.777946 98.225C0.777946 99.021 1.07795 99.419 1.67795 99.419C1.9899 99.407 2.29772 99.3435 2.58895 99.231V99.866C2.27735 99.9916 1.94386 100.054 1.60795 100.049C1.38689 100.063 1.16545 100.028 0.959522 99.9466C0.753597 99.865 0.568301 99.7388 0.416946 99.577C0.118347 99.1906 -0.0285513 98.7083 0.00394818 98.221C-0.00421259 97.8851 0.0641813 97.5517 0.203949 97.246C0.328773 96.9782 0.53165 96.7545 0.78595 96.604C1.05701 96.4506 1.36458 96.3736 1.67595 96.381C2.03878 96.3846 2.39607 96.4705 2.72095 96.632L2.47695 97.247C2.34668 97.1846 2.21315 97.1292 2.07695 97.081C1.94773 97.0341 1.81141 97.0098 1.67395 97.009V97.009ZM4.41595 97.749C4.34689 97.7453 4.27787 97.7569 4.21376 97.7828C4.14965 97.8087 4.09202 97.8484 4.04495 97.899C3.94782 98.02 3.89365 98.1699 3.89095 98.325H4.93995C4.94685 98.17 4.89548 98.0181 4.79595 97.899C4.74721 97.8481 4.688 97.8083 4.6224 97.7824C4.5568 97.7565 4.48636 97.7451 4.41595 97.749V97.749ZM4.51595 100.049C4.32868 100.06 4.14111 100.033 3.96424 99.9709C3.78737 99.9084 3.62476 99.8112 3.48595 99.685C3.35697 99.5478 3.2575 99.3857 3.19369 99.2085C3.12988 99.0313 3.10308 98.843 3.11495 98.655C3.09024 98.2706 3.21289 97.8912 3.45795 97.594C3.57961 97.4669 3.72731 97.3676 3.89094 97.3029C4.05456 97.2381 4.23024 97.2095 4.40595 97.219C4.57059 97.2092 4.73548 97.2335 4.89033 97.2903C5.04518 97.347 5.18667 97.4351 5.30595 97.549C5.41753 97.6718 5.50348 97.8157 5.55877 97.9721C5.61406 98.1285 5.63758 98.2944 5.62795 98.46V98.821H3.86795C3.86387 99.0057 3.93122 99.1848 4.05595 99.321C4.12165 99.3828 4.19927 99.4304 4.28405 99.461C4.36883 99.4916 4.45898 99.5046 4.54895 99.499C4.70572 99.4999 4.86208 99.4828 5.01495 99.448C5.17546 99.4087 5.33134 99.3524 5.47995 99.28V99.856C5.34759 99.9215 5.20747 99.9698 5.06295 100C4.88446 100.035 4.70282 100.051 4.52095 100.049H4.51595ZM8.75895 100H8.01395V98.406C8.02616 98.2517 7.9913 98.0972 7.91395 97.963C7.87507 97.9124 7.82413 97.8724 7.76579 97.8465C7.70745 97.8207 7.64355 97.8098 7.57995 97.815C7.49291 97.8073 7.40538 97.8226 7.32608 97.8593C7.24677 97.8959 7.17846 97.9527 7.12795 98.024C7.01868 98.2375 6.97058 98.477 6.98895 98.716V100H6.23995V97.271H6.80895L6.90895 97.62H6.95095C7.03319 97.4884 7.15253 97.384 7.29395 97.32C7.45122 97.2503 7.62195 97.2161 7.79395 97.22C7.92575 97.2107 8.05806 97.2288 8.18251 97.2732C8.30696 97.3176 8.42084 97.3874 8.51695 97.478C8.6935 97.6838 8.78219 97.9506 8.76395 98.221L8.75895 100ZM10.6759 99.456C10.834 99.4503 10.9903 99.4213 11.1399 99.37V99.924C10.9232 100.013 10.6902 100.056 10.4559 100.049C10.3376 100.06 10.2184 100.045 10.1061 100.006C9.99386 99.9672 9.8912 99.9048 9.80495 99.823C9.65676 99.6299 9.58549 99.3887 9.60495 99.146V97.83H9.24895V97.515L9.65895 97.266L9.87395 96.69H10.3499V97.271H11.1139V97.83H10.3499V99.146C10.3466 99.1893 10.3529 99.2327 10.3685 99.2732C10.384 99.3137 10.4085 99.3502 10.4399 99.38C10.5068 99.4332 10.5907 99.4602 10.6759 99.456V99.456ZM13.2199 97.22C13.3042 97.2185 13.3883 97.2259 13.4709 97.242L13.4149 97.942C13.343 97.9245 13.269 97.9165 13.195 97.918C12.9935 97.9056 12.7949 97.9707 12.6399 98.1C12.5718 98.1662 12.5186 98.2462 12.4841 98.3348C12.4496 98.4233 12.4345 98.5182 12.4399 98.613V100H11.695V97.271H12.2589L12.3689 97.73H12.4059C12.4877 97.5801 12.6056 97.4529 12.7489 97.36C12.8882 97.2676 13.0518 97.2186 13.2189 97.219L13.2199 97.22ZM14.5599 98.631C14.5464 98.8438 14.5925 99.0561 14.6929 99.244C14.7402 99.314 14.8052 99.3701 14.8813 99.4067C14.9574 99.4432 15.0418 99.4589 15.1259 99.452C15.2092 99.459 15.2928 99.4436 15.368 99.4074C15.4433 99.3711 15.5075 99.3154 15.5539 99.246C15.6531 99.0573 15.6984 98.8448 15.6849 98.632C15.6989 98.421 15.6531 98.2103 15.5529 98.024C15.5048 97.9558 15.4395 97.9014 15.3637 97.8663C15.2879 97.8312 15.2042 97.8166 15.1209 97.824C15.038 97.8168 14.9547 97.8314 14.8792 97.8665C14.8037 97.9016 14.7388 97.956 14.6909 98.024C14.5914 98.2098 14.546 98.4198 14.5599 98.63V98.631ZM16.4469 98.631C16.4692 99.0109 16.343 99.3845 16.0949 99.673C15.9678 99.8015 15.8147 99.9015 15.6459 99.9664C15.4771 100.031 15.2965 100.059 15.1159 100.049C14.8738 100.054 14.6347 99.9946 14.4229 99.877C14.2231 99.7625 14.0624 99.5903 13.9619 99.383C13.8502 99.1484 13.795 98.8908 13.8009 98.631C13.7776 98.2522 13.9028 97.8791 14.1499 97.591C14.2781 97.4635 14.4317 97.3646 14.6008 97.3006C14.7698 97.2367 14.9505 97.2092 15.1309 97.22C15.373 97.2151 15.612 97.2741 15.8239 97.391C16.0235 97.5046 16.1842 97.6757 16.2849 97.882C16.397 98.1152 16.4525 98.3714 16.4469 98.63V98.631ZM19.2249 100.049C19.0778 100.054 18.9316 100.023 18.7996 99.9576C18.6677 99.8924 18.554 99.7952 18.4689 99.675C18.2693 99.3682 18.1729 99.0055 18.1939 98.64C18.1722 98.2703 18.2704 97.9034 18.4739 97.594C18.5615 97.473 18.6776 97.3755 18.812 97.3101C18.9463 97.2446 19.0947 97.2134 19.2439 97.219C19.3984 97.2117 19.5522 97.2447 19.69 97.3148C19.8278 97.385 19.945 97.4898 20.0299 97.619H20.0539C20.019 97.4398 20.0003 97.2577 19.9979 97.075V96.2H20.7449V100H20.1739L20.0299 99.646H19.9979C19.9173 99.7766 19.803 99.883 19.6669 99.9539C19.5308 100.025 19.3781 100.058 19.2249 100.049V100.049ZM19.4859 99.456C19.5639 99.4631 19.6424 99.4518 19.7152 99.4229C19.788 99.3941 19.853 99.3486 19.9049 99.29C20.0101 99.1214 20.0608 98.9245 20.0499 98.726V98.645C20.0679 98.4263 20.0209 98.2072 19.9149 98.015C19.8633 97.9489 19.7958 97.8968 19.7188 97.8636C19.6417 97.8304 19.5575 97.8172 19.4739 97.825C19.3965 97.8228 19.3199 97.8411 19.2519 97.8782C19.1839 97.9152 19.127 97.9697 19.0869 98.036C18.9836 98.2234 18.9357 98.4364 18.9489 98.65C18.9354 98.8593 18.9837 99.068 19.0879 99.25C19.131 99.316 19.1903 99.3696 19.2603 99.4057C19.3302 99.4418 19.4083 99.4591 19.4869 99.456H19.4859ZM22.6549 97.749C22.5859 97.7453 22.5169 97.7569 22.4528 97.7828C22.3887 97.8087 22.331 97.8484 22.2839 97.899C22.1868 98.02 22.1326 98.1699 22.1299 98.325H23.1749C23.1819 98.17 23.1305 98.0181 23.0309 97.899C22.9828 97.8487 22.9244 97.8093 22.8597 97.7834C22.795 97.7576 22.7255 97.7458 22.6559 97.749H22.6549ZM22.7549 100.049C22.5677 100.06 22.3801 100.033 22.2032 99.9709C22.0264 99.9084 21.8638 99.8112 21.7249 99.685C21.596 99.5478 21.4965 99.3857 21.4327 99.2085C21.3689 99.0313 21.3421 98.843 21.3539 98.655C21.3292 98.2706 21.4519 97.8912 21.6969 97.594C21.8186 97.4669 21.9663 97.3676 22.1299 97.3029C22.2936 97.2381 22.4692 97.2095 22.6449 97.219C22.8096 97.2092 22.9745 97.2335 23.1293 97.2903C23.2842 97.347 23.4257 97.4351 23.5449 97.549C23.6565 97.6718 23.7425 97.8157 23.7978 97.9721C23.8531 98.1285 23.8766 98.2944 23.8669 98.46V98.821H22.1069C22.1029 99.0057 22.1702 99.1848 22.2949 99.321C22.3606 99.3828 22.4383 99.4304 22.5231 99.461C22.6078 99.4916 22.698 99.5046 22.7879 99.499C22.9447 99.4999 23.1011 99.4828 23.2539 99.448C23.4148 99.4087 23.571 99.3524 23.7199 99.28V99.856C23.5876 99.9215 23.4475 99.9698 23.3029 100C23.1245 100.035 22.9428 100.051 22.7609 100.049H22.7549ZM29.0029 100H28.0399L26.4869 97.3H26.4649C26.4956 97.7767 26.5109 98.117 26.5109 98.321V100H25.8399V96.431H26.7949L28.3399 99.1H28.3569C28.3323 98.6334 28.3199 98.3054 28.3199 98.116V96.431H29.0009L29.0029 100ZM31.5759 100L31.4319 99.629H31.4119C31.3103 99.767 31.1777 99.8794 31.0249 99.957C30.8604 100.024 30.6835 100.056 30.5059 100.049C30.3929 100.055 30.2798 100.038 30.1734 99.9998C30.0671 99.9612 29.9696 99.9014 29.8869 99.824C29.808 99.7382 29.7472 99.6372 29.7084 99.5272C29.6695 99.4172 29.6534 99.3005 29.6609 99.184C29.6515 99.0604 29.6742 98.9364 29.7268 98.8241C29.7793 98.7118 29.86 98.615 29.9609 98.543C30.2401 98.3849 30.5572 98.3061 30.8779 98.315L31.3519 98.3V98.18C31.3595 98.1229 31.3536 98.0648 31.3347 98.0103C31.3159 97.9558 31.2846 97.9064 31.2433 97.8662C31.2021 97.8259 31.152 97.7958 31.0971 97.7782C31.0422 97.7607 30.9839 97.7562 30.9269 97.765C30.6595 97.7778 30.3977 97.8459 30.1579 97.965L29.9109 97.465C30.2338 97.2984 30.5926 97.2136 30.9559 97.218C31.2558 97.198 31.5533 97.2824 31.7979 97.457C31.8995 97.5476 31.9788 97.6605 32.0297 97.7867C32.0805 97.913 32.1015 98.0493 32.0909 98.185V100H31.5759ZM31.3559 98.735L31.0679 98.745C30.8993 98.7391 30.7322 98.7796 30.5849 98.862C30.5324 98.8981 30.4901 98.9472 30.4622 99.0045C30.4344 99.0619 30.4219 99.1254 30.4259 99.189C30.4259 99.399 30.5463 99.504 30.7869 99.504C30.8624 99.5078 30.9378 99.4965 31.0088 99.4709C31.0799 99.4454 31.1452 99.406 31.2009 99.355C31.2536 99.3031 31.2946 99.2406 31.3213 99.1717C31.3481 99.1027 31.3599 99.0289 31.3559 98.955V98.735ZM35.3829 100H34.6399V98.406C34.6522 98.2517 34.6173 98.0972 34.5399 97.963C34.5011 97.9124 34.4501 97.8724 34.3918 97.8465C34.3334 97.8207 34.2696 97.8098 34.2059 97.815C34.1189 97.8073 34.0314 97.8226 33.9521 97.8593C33.8728 97.8959 33.8045 97.9527 33.7539 98.024C33.6447 98.2375 33.5966 98.477 33.6149 98.716V100H32.8699V97.271H33.4389L33.5389 97.62H33.5809C33.6632 97.4884 33.7825 97.384 33.9239 97.32C34.0812 97.2503 34.2519 97.2161 34.4239 97.22C34.5558 97.2107 34.6881 97.2288 34.8125 97.2732C34.937 97.3176 35.0508 97.3874 35.1469 97.478C35.3235 97.6838 35.4122 97.9506 35.3939 98.221L35.3829 100ZM36.7399 98.63C36.7264 98.8428 36.7725 99.0551 36.8729 99.243C36.9202 99.313 36.9852 99.3691 37.0613 99.4057C37.1374 99.4422 37.2218 99.4579 37.3059 99.451C37.3902 99.459 37.4751 99.444 37.5516 99.4075C37.628 99.3711 37.6931 99.3146 37.7399 99.244C37.8391 99.0553 37.8844 98.8428 37.8709 98.63C37.8852 98.4191 37.8398 98.2084 37.7399 98.022C37.6918 97.9538 37.6265 97.8994 37.5507 97.8643C37.4749 97.8292 37.3912 97.8146 37.3079 97.822C37.225 97.8148 37.1417 97.8294 37.0662 97.8645C36.9907 97.8996 36.9258 97.954 36.8779 98.022C36.7756 98.2077 36.7278 98.4184 36.7399 98.63V98.63ZM38.6269 98.63C38.6492 99.0099 38.523 99.3835 38.2749 99.672C38.1478 99.8005 37.9947 99.9005 37.8259 99.9654C37.6571 100.03 37.4765 100.058 37.2959 100.048C37.0538 100.053 36.8147 99.9936 36.6029 99.876C36.4023 99.7618 36.241 99.5896 36.1399 99.382C36.0282 99.1474 35.973 98.8898 35.9789 98.63C35.9556 98.2512 36.0808 97.8781 36.3279 97.59C36.4561 97.4625 36.6097 97.3636 36.7788 97.2996C36.9478 97.2357 37.1285 97.2082 37.3089 97.219C37.551 97.2141 37.79 97.2731 38.0019 97.39C38.2015 97.5036 38.3622 97.6747 38.4629 97.881C38.5768 98.1141 38.6341 98.3707 38.6299 98.63H38.6269ZM40.3529 100.049C39.5036 100.049 39.0789 99.5824 39.0789 98.649C39.0524 98.2631 39.1769 97.882 39.4259 97.586C39.5566 97.4585 39.7126 97.3599 39.8839 97.2967C40.0551 97.2334 40.2378 97.207 40.4199 97.219C40.7139 97.2142 41.0049 97.2779 41.2699 97.405L41.0499 97.981C40.9326 97.9337 40.8236 97.895 40.7229 97.865C40.6256 97.8357 40.5246 97.8205 40.4229 97.82C40.0356 97.82 39.8419 98.095 39.8419 98.645C39.8419 99.1784 40.0356 99.445 40.4229 99.445C40.5584 99.4466 40.6933 99.4274 40.8229 99.388C40.9528 99.3461 41.0761 99.2858 41.1889 99.209V99.846C41.0748 99.9179 40.9494 99.9699 40.8179 100C40.6653 100.034 40.5093 100.05 40.3529 100.049V100.049ZM41.7839 96.565C41.7839 96.3224 41.9189 96.201 42.1889 96.201C42.4589 96.201 42.5939 96.3224 42.5939 96.565C42.5971 96.6145 42.5898 96.6641 42.5725 96.7106C42.5553 96.7571 42.5285 96.7995 42.4939 96.835C42.4105 96.9056 42.3031 96.9414 42.1939 96.935C41.9206 96.9324 41.7839 96.809 41.7839 96.565ZM42.5599 100H41.8149V97.271H42.5599V100ZM44.4719 97.749C44.4029 97.7453 44.3339 97.7569 44.2698 97.7828C44.2057 97.8087 44.148 97.8484 44.1009 97.899C44.0038 98.02 43.9496 98.1699 43.9469 98.325H44.9919C44.9986 98.1704 44.9472 98.0188 44.8479 97.9C44.7997 97.8494 44.7412 97.8097 44.6764 97.7837C44.6115 97.7576 44.5418 97.7458 44.4719 97.749ZM44.5719 100.049C44.3847 100.06 44.1971 100.033 44.0202 99.9709C43.8434 99.9084 43.6808 99.8112 43.5419 99.685C43.413 99.5478 43.3135 99.3857 43.2497 99.2085C43.1859 99.0313 43.1591 98.843 43.1709 98.655C43.1462 98.2706 43.2689 97.8912 43.5139 97.594C43.6356 97.4669 43.7833 97.3676 43.9469 97.3029C44.1106 97.2381 44.2862 97.2095 44.4619 97.219C44.6266 97.2092 44.7915 97.2335 44.9463 97.2903C45.1012 97.347 45.2427 97.4351 45.3619 97.549C45.4735 97.6718 45.5595 97.8157 45.6148 97.9721C45.6701 98.1285 45.6936 98.2944 45.6839 98.46V98.821H43.9299C43.9259 99.0057 43.9932 99.1848 44.1179 99.321C44.1836 99.3828 44.2613 99.4304 44.3461 99.461C44.4308 99.4916 44.521 99.5046 44.6109 99.499C44.7677 99.4999 44.9241 99.4828 45.0769 99.448C45.2368 99.4085 45.392 99.3522 45.5399 99.28V99.856C45.4063 99.9218 45.2648 99.9702 45.1189 100C44.9405 100.035 44.7588 100.051 44.5769 100.049H44.5719ZM48.8149 100H48.0699V98.406C48.0822 98.2517 48.0473 98.0972 47.9699 97.963C47.9311 97.9124 47.8801 97.8724 47.8218 97.8465C47.7634 97.8207 47.6996 97.8098 47.6359 97.815C47.5489 97.8073 47.4614 97.8226 47.3821 97.8593C47.3028 97.8959 47.2345 97.9527 47.1839 98.024C47.0747 98.2375 47.0266 98.477 47.0449 98.716V100H46.2999V97.271H46.8689L46.9689 97.62H47.0109C47.0932 97.4884 47.2125 97.384 47.3539 97.32C47.5112 97.2503 47.6819 97.2161 47.8539 97.22C47.9858 97.2107 48.1181 97.2288 48.2425 97.2732C48.367 97.3176 48.4808 97.3874 48.5769 97.478C48.7535 97.6838 48.8422 97.9506 48.8239 98.221L48.8149 100ZM50.6899 100.049C49.8406 100.049 49.4159 99.5824 49.4159 98.649C49.3894 98.2631 49.5139 97.882 49.7629 97.586C49.8936 97.4585 50.0496 97.3599 50.2209 97.2967C50.3921 97.2334 50.5748 97.207 50.7569 97.219C51.0509 97.2142 51.3419 97.2779 51.6069 97.405L51.3869 97.981C51.2689 97.9337 51.1596 97.895 51.0589 97.865C50.9616 97.8357 50.8606 97.8205 50.7589 97.82C50.3716 97.82 50.1779 98.095 50.1779 98.645C50.1779 99.1784 50.3716 99.445 50.7589 99.445C50.8944 99.4466 51.0293 99.4274 51.1589 99.388C51.2871 99.3456 51.4086 99.2854 51.5199 99.209V99.846C51.4077 99.9172 51.2843 99.9693 51.1549 100C51.0023 100.034 50.8463 100.05 50.6899 100.049V100.049ZM52.1209 96.565C52.1209 96.3224 52.2559 96.201 52.5259 96.201C52.7959 96.201 52.9309 96.3224 52.9309 96.565C52.9341 96.6145 52.9268 96.6641 52.9095 96.7106C52.8923 96.7571 52.8656 96.7995 52.8309 96.835C52.7475 96.9056 52.6401 96.9414 52.5309 96.935C52.2576 96.9324 52.1209 96.809 52.1209 96.565ZM52.8969 100H52.1529V97.271H52.8979L52.8969 100ZM55.4119 100L55.2679 99.629H55.2479C55.1463 99.767 55.0137 99.8794 54.8609 99.957C54.6958 100.024 54.5182 100.056 54.3399 100.049C54.2269 100.055 54.1138 100.038 54.0074 99.9998C53.9011 99.9612 53.8036 99.9014 53.7209 99.824C53.642 99.7382 53.5812 99.6372 53.5424 99.5272C53.5035 99.4172 53.4874 99.3005 53.4949 99.184C53.4855 99.0604 53.5082 98.9364 53.5608 98.8241C53.6133 98.7118 53.694 98.615 53.7949 98.543C54.0741 98.3849 54.3912 98.3061 54.7119 98.315L55.1919 98.3V98.18C55.1995 98.1229 55.1936 98.0648 55.1747 98.0103C55.1559 97.9558 55.1246 97.9064 55.0833 97.8662C55.0421 97.8259 54.992 97.7958 54.9371 97.7782C54.8822 97.7607 54.8239 97.7562 54.7669 97.765C54.4995 97.7778 54.2377 97.8459 53.9979 97.965L53.7509 97.465C54.0738 97.2984 54.4326 97.2136 54.7959 97.218C55.0958 97.198 55.3933 97.2824 55.6379 97.457C55.7395 97.5476 55.8188 97.6605 55.8697 97.7867C55.9205 97.913 55.9415 98.0493 55.9309 98.185V100H55.4119ZM55.1919 98.735L54.9039 98.745C54.7353 98.7391 54.5682 98.7796 54.4209 98.862C54.3684 98.8981 54.3261 98.9472 54.2982 99.0045C54.2704 99.0619 54.2579 99.1254 54.2619 99.189C54.2619 99.399 54.3823 99.504 54.6229 99.504C54.6989 99.5082 54.7749 99.4971 54.8465 99.4715C54.9181 99.4459 54.9838 99.4063 55.0399 99.355C55.0926 99.3031 55.1336 99.2406 55.1603 99.1717C55.1871 99.1027 55.1989 99.0289 55.1949 98.955L55.1919 98.735ZM58.6029 99.189C58.6102 99.3114 58.5874 99.4338 58.5365 99.5453C58.4856 99.6569 58.4082 99.7543 58.3109 99.829C58.0514 99.9932 57.7463 100.07 57.4399 100.049C57.2691 100.052 57.0983 100.038 56.9299 100.009C56.7961 99.9833 56.6654 99.9434 56.5399 99.89V99.275C56.6904 99.3445 56.8471 99.3994 57.0079 99.439C57.1566 99.4778 57.3094 99.4982 57.4629 99.5C57.7329 99.5 57.8679 99.422 57.8679 99.266C57.8696 99.2131 57.8502 99.1617 57.8139 99.123C57.7585 99.0734 57.6962 99.032 57.6289 99C57.5409 98.9534 57.4236 98.8994 57.2769 98.838C57.1138 98.7772 56.9584 98.6974 56.8139 98.6C56.722 98.5332 56.6482 98.4445 56.5989 98.342C56.551 98.2289 56.5282 98.1068 56.5319 97.984C56.5272 97.874 56.5506 97.7645 56.6 97.666C56.6493 97.5675 56.723 97.4832 56.8139 97.421C57.0538 97.274 57.3331 97.2042 57.6139 97.221C57.9455 97.2218 58.2728 97.2952 58.5729 97.436L58.3479 97.973C58.2113 97.9144 58.0836 97.8664 57.9649 97.829C57.8472 97.7918 57.7244 97.7729 57.6009 97.773C57.3809 97.773 57.2709 97.8324 57.2709 97.951C57.2726 97.9865 57.2831 98.0209 57.3017 98.0512C57.3202 98.0814 57.3461 98.1065 57.3769 98.124C57.5246 98.2096 57.6795 98.2819 57.8399 98.34C58.0056 98.4012 58.1631 98.4825 58.3089 98.582C58.402 98.6494 58.4775 98.7383 58.5289 98.841C58.5794 98.95 58.6047 99.069 58.6029 99.189V99.189ZM60.0919 97.271H60.9069L61.4219 98.807C61.4698 98.9611 61.5 99.1201 61.5119 99.281H61.5269C61.5418 99.1197 61.5754 98.9606 61.6269 98.807L62.1399 97.271H62.9399L61.7819 100.349C61.6985 100.603 61.5407 100.826 61.3289 100.989C61.128 101.132 60.8864 101.206 60.6399 101.2C60.5128 101.2 60.386 101.186 60.2619 101.158V100.569C60.3584 100.591 60.4571 100.601 60.5559 100.6C60.6815 100.602 60.8038 100.56 60.9009 100.48C61.0106 100.382 61.0907 100.256 61.1319 100.115L61.1759 99.98L60.0919 97.271ZM67.8509 100H66.8889L65.34 97.3H65.3179C65.3486 97.7767 65.3639 98.117 65.3639 98.321V100H64.688V96.431H65.6399L67.1889 99.1H67.2059C67.1813 98.6334 67.1689 98.3054 67.1689 98.116V96.431H67.8499L67.8509 100ZM70.424 100L70.2799 99.629H70.2599C70.1583 99.767 70.0257 99.8794 69.8729 99.957C69.7084 100.024 69.5315 100.056 69.354 100.049C69.2418 100.055 69.1296 100.037 69.0241 99.9988C68.9187 99.9602 68.822 99.9007 68.7399 99.824C68.661 99.7382 68.6002 99.6372 68.5614 99.5272C68.5225 99.4172 68.5064 99.3005 68.5139 99.184C68.5045 99.0604 68.5272 98.9364 68.5798 98.8241C68.6323 98.7118 68.713 98.615 68.8139 98.543C69.0931 98.3849 69.4102 98.3061 69.7309 98.315L70.2049 98.3V98.18C70.2125 98.1229 70.2066 98.0648 70.1877 98.0103C70.1689 97.9558 70.1376 97.9064 70.0963 97.8662C70.0551 97.8259 70.005 97.7958 69.9501 97.7782C69.8952 97.7607 69.8369 97.7562 69.7799 97.765C69.5125 97.7778 69.2507 97.8459 69.0109 97.965L68.7639 97.465C69.0868 97.2984 69.4456 97.2136 69.8089 97.218C70.1088 97.198 70.4063 97.2824 70.6509 97.457C70.7525 97.5476 70.8318 97.6605 70.8827 97.7867C70.9335 97.913 70.9545 98.0493 70.9439 98.185V100H70.424ZM70.2039 98.735L69.9159 98.745C69.7473 98.7391 69.5802 98.7796 69.4329 98.862C69.3804 98.8981 69.3381 98.9472 69.3102 99.0045C69.2824 99.0619 69.2699 99.1254 69.2739 99.189C69.2739 99.399 69.3943 99.504 69.6349 99.504C69.7104 99.5078 69.7858 99.4965 69.8568 99.4709C69.9279 99.4454 69.9932 99.406 70.049 99.355C70.1016 99.3031 70.1426 99.2406 70.1693 99.1717C70.1961 99.1027 70.2079 99.0289 70.2039 98.955V98.735ZM74.2299 100H73.4849V98.406C73.4972 98.2517 73.4623 98.0972 73.3849 97.963C73.3461 97.9124 73.2951 97.8724 73.2368 97.8465C73.1784 97.8207 73.1146 97.8098 73.0509 97.815C72.9639 97.8073 72.8764 97.8226 72.7971 97.8593C72.7178 97.8959 72.6495 97.9527 72.5989 98.024C72.4897 98.2375 72.4416 98.477 72.4599 98.716V100H71.715V97.271H72.284L72.3839 97.62H72.4259C72.5082 97.4884 72.6275 97.384 72.7689 97.32C72.9262 97.2503 73.0969 97.2161 73.2689 97.22C73.4007 97.2107 73.5331 97.2288 73.6575 97.2732C73.782 97.3176 73.8958 97.3874 73.992 97.478C74.1685 97.6838 74.2572 97.9506 74.2389 98.221L74.2299 100ZM75.59 98.63C75.5764 98.8428 75.6225 99.0551 75.7229 99.243C75.7702 99.313 75.8352 99.3691 75.9113 99.4057C75.9874 99.4422 76.0718 99.4579 76.1559 99.451C76.2392 99.458 76.3228 99.4426 76.398 99.4064C76.4733 99.3701 76.5375 99.3144 76.5839 99.245C76.6831 99.0563 76.7284 98.8438 76.715 98.631C76.7289 98.42 76.6831 98.2093 76.5829 98.023C76.5348 97.9548 76.4695 97.9004 76.3937 97.8653C76.3179 97.8302 76.2342 97.8156 76.1509 97.823C76.068 97.8158 75.9847 97.8304 75.9092 97.8655C75.8337 97.9006 75.7688 97.955 75.7209 98.023C75.6212 98.2091 75.5759 98.4194 75.59 98.63V98.63ZM77.4769 98.63C77.4992 99.0099 77.373 99.3835 77.1249 99.672C76.9978 99.8005 76.8447 99.9005 76.6759 99.9654C76.5071 100.03 76.3265 100.058 76.146 100.048C75.9038 100.053 75.6647 99.9936 75.4529 99.876C75.2531 99.7615 75.0924 99.5893 74.992 99.382C74.8802 99.1474 74.825 98.8898 74.8309 98.63C74.8076 98.2512 74.9328 97.8781 75.1799 97.59C75.3081 97.4625 75.4617 97.3636 75.6308 97.2996C75.7998 97.2357 75.9805 97.2082 76.1609 97.219C76.403 97.2141 76.642 97.2731 76.854 97.39C77.0535 97.5036 77.2142 97.6747 77.3149 97.881C77.4271 98.1145 77.4826 98.3711 77.4769 98.63V98.63ZM79.2399 99.456C79.3996 99.4511 79.5577 99.4224 79.7089 99.371V99.925C79.4922 100.014 79.2592 100.057 79.0249 100.05C78.9066 100.061 78.7874 100.046 78.6751 100.007C78.5629 99.9682 78.4602 99.9058 78.3739 99.824C78.2258 99.6309 78.1545 99.3897 78.174 99.147V97.83H77.8179V97.515L78.228 97.266L78.4429 96.69H78.9189V97.271H79.6829V97.83H78.9189V99.146C78.9154 99.1892 78.9216 99.2326 78.937 99.2731C78.9524 99.3136 78.9766 99.3501 79.0079 99.38C79.0737 99.4322 79.156 99.4592 79.2399 99.456V99.456ZM81.3909 97.749C81.3219 97.7453 81.2529 97.7569 81.1888 97.7828C81.1247 97.8087 81.067 97.8484 81.02 97.899C80.9228 98.02 80.8686 98.1699 80.8659 98.325H81.9109C81.9179 98.17 81.8665 98.0181 81.7669 97.899C81.7189 97.8488 81.6607 97.8095 81.5962 97.7836C81.5317 97.7578 81.4624 97.746 81.3929 97.749H81.3909ZM81.4909 100.049C81.3037 100.06 81.1161 100.033 80.9392 99.9709C80.7624 99.9084 80.5998 99.8112 80.4609 99.685C80.332 99.5478 80.2325 99.3857 80.1687 99.2085C80.1049 99.0313 80.0781 98.843 80.09 98.655C80.0672 98.2697 80.1924 97.8902 80.4399 97.594C80.5616 97.4669 80.7093 97.3676 80.8729 97.3029C81.0366 97.2381 81.2122 97.2095 81.3879 97.219C81.5526 97.2092 81.7175 97.2335 81.8723 97.2903C82.0272 97.347 82.1687 97.4351 82.2879 97.549C82.3995 97.6718 82.4855 97.8157 82.5408 97.9721C82.5961 98.1285 82.6196 98.2944 82.6099 98.46V98.821H80.8499C80.8459 99.0057 80.9132 99.1848 81.0379 99.321C81.1036 99.3828 81.1813 99.4304 81.2661 99.461C81.3508 99.4916 81.441 99.5046 81.5309 99.499C81.6877 99.4999 81.8441 99.4828 81.9969 99.448C82.1553 99.4095 82.3091 99.3546 82.4559 99.284V99.86C82.3237 99.924 82.1839 99.971 82.0399 100C81.8615 100.035 81.6798 100.051 81.4979 100.049H81.4909ZM84.3179 100.049C83.4686 100.049 83.0439 99.5824 83.0439 98.649C83.0174 98.2631 83.1419 97.882 83.3909 97.586C83.5216 97.4585 83.6776 97.3599 83.8489 97.2967C84.0201 97.2334 84.2028 97.207 84.3849 97.219C84.6789 97.2142 84.9699 97.2779 85.2349 97.405L85.0149 97.981C84.8976 97.9337 84.7886 97.895 84.688 97.865C84.5906 97.8357 84.4896 97.8205 84.3879 97.82C84.0006 97.82 83.8069 98.095 83.8069 98.645C83.8069 99.1784 84.0006 99.445 84.3879 99.445C84.5234 99.4466 84.6583 99.4274 84.7879 99.388C84.9178 99.3461 85.0411 99.2858 85.1539 99.209V99.846C85.0423 99.917 84.9196 99.9691 84.7909 100C84.638 100.034 84.4816 100.051 84.3249 100.049H84.3179ZM88.3069 100H87.5619V98.406C87.5742 98.2517 87.5393 98.0972 87.4619 97.963C87.4231 97.9124 87.3721 97.8724 87.3138 97.8465C87.2554 97.8207 87.1915 97.8098 87.1279 97.815C87.0409 97.8073 86.9534 97.8226 86.8741 97.8593C86.7948 97.8959 86.7265 97.9527 86.6759 98.024C86.5667 98.2375 86.5186 98.477 86.5369 98.716V100H85.7919V97.271H86.3609L86.4609 97.62H86.5029C86.5852 97.4884 86.7045 97.384 86.8459 97.32C87.0032 97.2503 87.1739 97.2161 87.3459 97.22C87.4778 97.2107 87.6101 97.2288 87.7345 97.2732C87.859 97.3176 87.9728 97.3874 88.0689 97.478C88.2455 97.6838 88.3342 97.9506 88.3159 98.221L88.3069 100ZM89.6669 98.63C89.6534 98.8428 89.6995 99.0551 89.7999 99.243C89.8472 99.313 89.9122 99.3691 89.9883 99.4057C90.0644 99.4422 90.1488 99.4579 90.2329 99.451C90.3162 99.458 90.3998 99.4426 90.475 99.4064C90.5503 99.3701 90.6145 99.3144 90.6609 99.245C90.7601 99.0563 90.8054 98.8438 90.7919 98.631C90.8059 98.42 90.7601 98.2093 90.6599 98.023C90.6118 97.9548 90.5465 97.9004 90.4707 97.8653C90.3949 97.8302 90.3112 97.8156 90.2279 97.823C90.145 97.8158 90.0617 97.8304 89.9862 97.8655C89.9107 97.9006 89.8458 97.955 89.7979 98.023C89.6982 98.2091 89.6529 98.4194 89.6669 98.63V98.63ZM91.5539 98.63C91.5762 99.0099 91.45 99.3835 91.202 99.672C91.0748 99.8005 90.9217 99.9005 90.7529 99.9654C90.5841 100.03 90.4035 100.058 90.2229 100.048C89.9808 100.053 89.7417 99.9936 89.5299 99.876C89.3301 99.7615 89.1694 99.5893 89.0689 99.382C88.9572 99.1474 88.902 98.8898 88.9079 98.63C88.8846 98.2512 89.0098 97.8781 89.2569 97.59C89.3851 97.4625 89.5387 97.3636 89.7078 97.2996C89.8768 97.2357 90.0575 97.2082 90.2379 97.219C90.48 97.2141 90.719 97.2731 90.9309 97.39C91.1305 97.5036 91.2912 97.6747 91.3919 97.881C91.5041 98.1145 91.5596 98.3711 91.5539 98.63ZM92.9139 100H92.1699V96.2H92.9149L92.9139 100ZM94.2889 98.63C94.2754 98.8428 94.3215 99.0551 94.4219 99.243C94.4692 99.313 94.5342 99.3691 94.6103 99.4057C94.6864 99.4422 94.7708 99.4579 94.8549 99.451C94.9382 99.458 95.0218 99.4426 95.097 99.4064C95.1723 99.3701 95.2365 99.3144 95.2829 99.245C95.3821 99.0563 95.4274 98.8438 95.4139 98.631C95.4279 98.42 95.3821 98.2093 95.2819 98.023C95.2338 97.9548 95.1685 97.9004 95.0927 97.8653C95.0169 97.8302 94.9332 97.8156 94.8499 97.823C94.767 97.8158 94.6837 97.8304 94.6082 97.8655C94.5327 97.9006 94.4678 97.955 94.4199 98.023C94.3202 98.2091 94.2749 98.4194 94.2889 98.63V98.63ZM96.1759 98.63C96.1982 99.0099 96.072 99.3835 95.8239 99.672C95.6968 99.8005 95.5437 99.9005 95.3749 99.9654C95.2061 100.03 95.0255 100.058 94.8449 100.048C94.6028 100.053 94.3637 99.9936 94.1519 99.876C93.9521 99.7615 93.7914 99.5893 93.6909 99.382C93.5792 99.1474 93.524 98.8898 93.5299 98.63C93.5066 98.2512 93.6318 97.8781 93.8789 97.59C94.0071 97.4625 94.1607 97.3636 94.3298 97.2996C94.4988 97.2357 94.6795 97.2082 94.8599 97.219C95.102 97.2141 95.341 97.2731 95.5529 97.39C95.7525 97.5036 95.9132 97.6747 96.0139 97.881C96.1261 98.1145 96.1816 98.3711 96.1759 98.63ZM99.1669 97.27V97.648L98.7399 97.759C98.8181 97.8814 98.8587 98.0239 98.8569 98.169C98.8635 98.2992 98.8392 98.4292 98.786 98.5482C98.7328 98.6672 98.6523 98.772 98.5509 98.854C98.3037 99.0307 98.0033 99.1172 97.6999 99.099L97.5659 99.092L97.4559 99.08C97.422 99.1016 97.3938 99.131 97.3738 99.1659C97.3537 99.2007 97.3425 99.2399 97.341 99.28C97.341 99.3874 97.4776 99.441 97.7509 99.441H98.2149C98.4587 99.4243 98.7008 99.4925 98.8999 99.634C98.981 99.7034 99.0449 99.7906 99.0866 99.8888C99.1282 99.987 99.1465 100.094 99.1399 100.2C99.1446 100.348 99.11 100.495 99.0398 100.625C98.9695 100.755 98.8661 100.865 98.7399 100.942C98.3895 101.137 97.9901 101.227 97.5899 101.2C97.2858 101.219 96.9827 101.149 96.7169 101C96.6223 100.942 96.5447 100.859 96.492 100.761C96.4393 100.663 96.4134 100.553 96.4169 100.442C96.4124 100.29 96.4676 100.141 96.5709 100.029C96.6946 99.9068 96.852 99.8243 97.0229 99.792C96.9435 99.757 96.8746 99.7018 96.8229 99.632C96.7703 99.5661 96.7411 99.4844 96.7399 99.4C96.7366 99.3052 96.7687 99.2125 96.8299 99.14C96.9058 99.06 96.9939 98.9925 97.091 98.94C96.9484 98.8787 96.829 98.7736 96.7499 98.64C96.6635 98.494 96.6199 98.3267 96.6239 98.157C96.6165 98.0273 96.6389 97.8976 96.6893 97.7778C96.7398 97.658 96.817 97.5514 96.9149 97.466C97.1522 97.2891 97.4444 97.2016 97.7399 97.219C97.831 97.2202 97.9218 97.2272 98.0119 97.24C98.1166 97.254 98.1833 97.2644 98.2119 97.271L99.1669 97.27ZM97.0599 100.386C97.0597 100.436 97.0735 100.485 97.0996 100.528C97.1257 100.571 97.1633 100.605 97.2079 100.628C97.3358 100.693 97.4786 100.724 97.6219 100.716C97.8365 100.726 98.0505 100.688 98.2489 100.606C98.3125 100.585 98.3681 100.544 98.4085 100.491C98.449 100.437 98.4725 100.373 98.4759 100.306C98.479 100.261 98.4674 100.216 98.4429 100.177C98.4185 100.139 98.3824 100.109 98.3399 100.093C98.2067 100.047 98.0658 100.027 97.9249 100.034H97.5399C97.418 100.031 97.298 100.066 97.1969 100.134C97.1549 100.161 97.1203 100.199 97.0964 100.243C97.0724 100.287 97.0599 100.336 97.0599 100.386V100.386ZM97.3309 98.164C97.3236 98.2893 97.3589 98.4134 97.4309 98.516C97.4686 98.5604 97.5162 98.5953 97.5699 98.6177C97.6236 98.6401 97.6819 98.6495 97.7399 98.645C97.7979 98.65 97.8562 98.6409 97.9098 98.6184C97.9634 98.5959 98.0108 98.5608 98.0479 98.516C98.119 98.4129 98.1541 98.2892 98.1479 98.164C98.1479 97.8354 98.0129 97.671 97.7429 97.671C97.4729 97.671 97.3356 97.8354 97.3309 98.164V98.164ZM100.361 100H99.6159V97.271H100.361V100ZM99.5799 96.97V96.9C99.7877 96.6683 99.9795 96.4228 100.154 96.165H100.989V96.216C100.904 96.3007 100.76 96.4264 100.556 96.593C100.352 96.7597 100.192 96.8837 100.076 96.965L99.5799 96.97ZM102.875 100L102.731 99.629H102.711C102.609 99.767 102.477 99.8794 102.324 99.957C102.159 100.024 101.983 100.056 101.805 100.049C101.692 100.055 101.579 100.038 101.472 99.9998C101.366 99.9612 101.269 99.9014 101.186 99.824C101.107 99.7382 101.046 99.6372 101.007 99.5272C100.969 99.4172 100.952 99.3005 100.96 99.184C100.951 99.0604 100.973 98.9364 101.026 98.8241C101.078 98.7118 101.159 98.615 101.26 98.543C101.539 98.3849 101.856 98.3061 102.177 98.315L102.651 98.3V98.18C102.658 98.1229 102.653 98.0648 102.634 98.0103C102.615 97.9558 102.584 97.9064 102.542 97.8662C102.501 97.8259 102.451 97.7958 102.396 97.7782C102.341 97.7607 102.283 97.7562 102.226 97.765C101.959 97.7778 101.697 97.8459 101.457 97.965L101.21 97.465C101.533 97.2984 101.892 97.2136 102.255 97.218C102.555 97.198 102.852 97.2824 103.097 97.457C103.199 97.5476 103.278 97.6605 103.329 97.7867C103.379 97.913 103.4 98.0493 103.39 98.185V100H102.875ZM102.655 98.735L102.367 98.745C102.198 98.7391 102.031 98.7796 101.884 98.862C101.831 98.8981 101.789 98.9472 101.761 99.0045C101.733 99.0619 101.721 99.1254 101.725 99.189C101.725 99.399 101.845 99.504 102.086 99.504C102.161 99.5078 102.237 99.4965 102.308 99.4709C102.379 99.4454 102.444 99.406 102.5 99.355C102.553 99.3031 102.594 99.2406 102.62 99.1717C102.647 99.1027 102.659 99.0289 102.655 98.955V98.735ZM47.0899 102.431V104.74C47.0953 104.983 47.0341 105.223 46.9129 105.433C46.7929 105.634 46.6147 105.793 46.4019 105.89C46.1534 106.001 45.8832 106.056 45.6109 106.049C45.2224 106.075 44.8388 105.95 44.5399 105.7C44.411 105.576 44.3102 105.425 44.2445 105.258C44.1788 105.092 44.1496 104.913 44.1589 104.734V102.434H44.9129V104.616C44.8953 104.831 44.954 105.045 45.0789 105.221C45.1509 105.291 45.2373 105.345 45.3321 105.378C45.4269 105.412 45.5279 105.424 45.6279 105.414C45.7264 105.423 45.8255 105.41 45.9185 105.377C46.0115 105.343 46.0959 105.29 46.1659 105.22C46.2942 105.044 46.3559 104.828 46.3399 104.611V102.431H47.0899ZM51.1309 106H50.1689L48.6159 103.3H48.5939C48.6246 103.777 48.6399 104.117 48.6399 104.321V106H47.9639V102.431H48.9189L50.4689 105.1H50.4859C50.4613 104.633 50.4489 104.305 50.4489 104.116V102.431H51.1299L51.1309 106ZM54.2139 106L53.9549 105.15H52.6539L52.3959 106H51.5799L52.8399 102.416H53.7649L55.0299 106H54.2139ZM53.7749 104.516C53.5356 103.746 53.4023 103.311 53.3749 103.21C53.3476 103.109 53.3246 103.029 53.3059 102.97C53.2519 103.178 53.0983 103.693 52.8449 104.515L53.7749 104.516ZM56.9899 106L56.1309 103.2H56.1089C56.1396 103.769 56.1549 104.149 56.1549 104.34V106H55.4789V102.431H56.5089L57.3539 105.16H57.3689L58.2689 102.431H59.2989V106H58.5889V104.311C58.5889 104.231 58.5889 104.139 58.5889 104.035C58.5889 103.931 58.5999 103.654 58.6219 103.205H58.6039L57.6839 106H56.9899Z" fill="#F3F3F3"></path>
    <path d="M66.546 17.8911H64.722L47.562 63.4861C47.562 63.4861 47.7029 64.3761 47.9819 65.8111L66.546 17.8911Z" fill="#F3F3F3"></path>
    <path d="M64.9648 23.7451L48.2158 66.9801C48.3838 67.7981 48.5839 68.7251 48.8159 69.7211L66.6268 23.7451H64.9648Z" fill="#F3F3F3"></path>
    <path d="M65.7191 27.8618L49.0771 70.8188C49.2771 71.6448 49.5001 72.5058 49.7411 73.3818L67.3751 27.8628L65.7191 27.8618Z" fill="#F3F3F3"></path>
    <path d="M66.5542 31.75L50.0312 74.401C50.2453 75.141 50.4732 75.886 50.7142 76.625L68.0992 31.75H66.5542Z" fill="#F3F3F3"></path>
    <path d="M67.3071 35.5659L51.0352 77.5809C51.3252 78.4219 51.6352 79.2469 51.9572 80.0419L69.1871 35.5659H67.3071Z" fill="#F3F3F3"></path>
    <path d="M68.3309 39.5381L52.312 80.8881C52.7099 81.8069 53.1617 82.7015 53.665 83.5671L70.722 39.5381H68.3309Z" fill="#F3F3F3"></path>
    <path d="M69.854 43.5508L54.1021 84.2118C54.5855 84.7984 55.151 85.3124 55.781 85.7378L72.125 43.5508H69.854Z" fill="#F3F3F3"></path>
    <path d="M71.579 46.7329L56.334 86.0849C57.0235 86.484 57.7589 86.7979 58.524 87.0199L74.131 46.7329H71.579Z" fill="#F3F3F3"></path>
    <path d="M73.61 49.8481L59.146 87.1841C59.85 87.3446 60.5667 87.443 61.288 87.4781L75.866 49.8481H73.61Z" fill="#F3F3F3"></path>
    <path d="M75.7583 51.8989L61.9683 87.4989H62.0222H64.1603L77.9513 51.8989H75.7583Z" fill="#F3F3F3"></path>
    <path d="M78.2753 52.834L64.8462 87.497H66.4633L79.8922 52.834H78.2753Z" fill="#F3F3F3"></path>
    <path d="M80.2209 53.7529L67.1489 87.4949H68.8719L81.9089 53.7529H80.2209Z" fill="#F3F3F3"></path>
    <path d="M38.374 0L66.4551 11.676L37.6021 87.619H4.22705L38.374 0Z" fill="#F3F3F3"></path>
    <path d="M92.316 29.0928L120.686 40.8658L102.593 87.3778H69.832L92.316 29.0928Z" fill="#F3F3F3"></path>
  </g>
  <defs>
    <clipPath id="clip0_10_6">
      <rect width="120.686" height="106.049" fill="white"></rect>
    </clipPath>
  </defs>
</svg>
